<mxfile host="app.diagrams.net" agent="Mozilla/5.0 (Windows NT 10.0; Win64; x64) AppleWebKit/537.36 (KHTML, like Gecko) Chrome/130.0.0.0 Safari/537.36" version="24.8.0">
  <diagram name="Page-1" id="WHwWVNAcXYhROuGsAsxy">
    <mxGraphModel dx="1221" dy="731" grid="0" gridSize="10" guides="1" tooltips="1" connect="1" arrows="1" fold="1" page="1" pageScale="1" pageWidth="850" pageHeight="1100" math="0" shadow="0">
      <root>
        <mxCell id="0" />
        <mxCell id="1" parent="0" />
        <mxCell id="3a8J2WZS9e_OBkugWrMs-26" value="" style="rounded=0;whiteSpace=wrap;html=1;fillColor=#f5f5f5;fontColor=#333333;strokeColor=none;" vertex="1" parent="1">
          <mxGeometry x="50" y="23" width="750" height="579" as="geometry" />
        </mxCell>
        <mxCell id="3a8J2WZS9e_OBkugWrMs-25" value="" style="rounded=1;whiteSpace=wrap;html=1;" vertex="1" parent="1">
          <mxGeometry x="94" y="243" width="668" height="277" as="geometry" />
        </mxCell>
        <mxCell id="3a8J2WZS9e_OBkugWrMs-23" style="edgeStyle=orthogonalEdgeStyle;rounded=0;orthogonalLoop=1;jettySize=auto;html=1;entryX=0.5;entryY=1;entryDx=0;entryDy=0;" edge="1" parent="1" source="3a8J2WZS9e_OBkugWrMs-2" target="3a8J2WZS9e_OBkugWrMs-16">
          <mxGeometry relative="1" as="geometry" />
        </mxCell>
        <mxCell id="3a8J2WZS9e_OBkugWrMs-2" value="" style="shape=image;html=1;verticalAlign=top;verticalLabelPosition=bottom;labelBackgroundColor=#ffffff;imageAspect=0;aspect=fixed;image=https://cdn4.iconfinder.com/data/icons/flatified/128/map.png" vertex="1" parent="1">
          <mxGeometry x="116.5" y="409" width="73" height="73" as="geometry" />
        </mxCell>
        <mxCell id="3a8J2WZS9e_OBkugWrMs-5" value="" style="shape=image;verticalLabelPosition=bottom;labelBackgroundColor=default;verticalAlign=top;aspect=fixed;imageAspect=0;image=data:image/svg+xml,PHN2ZyB4bWxucz0iaHR0cDovL3d3dy53My5vcmcvMjAwMC9zdmciIGZpbGw9Im5vbmUiIHZpZXdCb3g9IjAgMCA5NjMgMjU1IiBoZWlnaHQ9IjI1NSIgd2lkdGg9Ijk2MyI+JiN4YTs8cGF0aCBmaWxsPSJibGFjayIgZD0iTTc2Ny4wODQgMTIyLjY2M0g4MzMuMzEzVjE3OC41NjVIODEzLjU0Mkw4MTIuMzkyIDE2Mi4xMjNDODAyLjUwMiAxNzIuODExIDc4Ni44NTQgMTgwLjA0NSA3NjQuNjEyIDE4MC4wNDVDNzI2LjA2IDE4MC4wNDUgNzAyLjUwMSAxNjAuOTcyIDcwMi41MDEgMTI2LjQ0NUM3MDIuNTAxIDkxLjkxNjcgNzI2LjA2IDcyLjg0MzggNzY5LjA2MiA3Mi44NDM4QzgxMC45MDMgNzIuODQzOCA4MzEuNjY4IDg5LjEyMTYgODMzLjMxMyAxMTQuOTM1SDgwNS45NjlDODA0LjQ4NSAxMDcuMDQzIDc5Ny4yMjkgOTUuMjA0NyA3NjguOTAxIDk1LjIwNDdDNzMzLjk2NyA5NS4yMDQ3IDcyOS4xODkgMTE0LjQ0MiA3MjkuMTg5IDEyNi45MzhDNzI5LjE4OSAxMzkuNTk5IDczNC4xMzQgMTU5LjMyOCA3NjguOTAxIDE1OS4zMjhDNzk0LjkyOCAxNTkuMzI4IDgwNS4zMDIgMTQ3Ljk4MyA4MDUuOTY5IDE0MC4wOTFINzY3LjA4NFYxMjIuNjYzVjEyMi42NjNaTTUyNS44ODcgMTc4LjczMUg1NTIuNThWNzQuNDg4OEg1MTYuMzMzTDQ3Mi42NzQgMTQ3Ljk4NEw0MjkuMDE1IDc0LjQ4ODhIMzkyLjc3VjE3OC43MzFINDE5LjYyNFYxMDcuMjA4TDQ2My4xMTggMTc4LjczMUg0ODIuMzk0TDUyNS44ODcgMTA3LjIwOFYxNzguNzMxWk02MDMuMTYxIDE1Ni41MzRINjY1LjZMNjc2Ljk2OCAxNzguNzMxSDcwNi42MjNMNjUyLjU4MSA3NC40ODg4SDYxNi4zMzZMNTYyLjQ2NSAxNzguNzMxSDU5MS45NTRMNjAzLjE2MSAxNTYuNTM0VjE1Ni41MzRaTTYzNC40NjEgOTQuMzgzNEw2NTUuNzE1IDEzNi42NEg2MTMuMDQxTDYzNC40NjEgOTQuMzgzNFpNODc5LjI4MiAxMTcuMDczVjk1Ljg2MzVIOTYyLjgwN1Y3NC40ODg4SDg1Mi40MjdWMTc5LjA2SDk2Mi44MDdWMTU3LjY4NUg4NzkuMjgyVjEzNi40NzVIOTYyLjgwN1YxMTcuMDczSDg3OS4yODJWMTE3LjA3M1oiIGNsaXAtcnVsZT0iZXZlbm9kZCIgZmlsbC1ydWxlPSJldmVub2RkIi8+JiN4YTs8cGF0aCBmaWxsPSJibGFjayIgZD0iTTEzMC45MzcgMi4yNUgyMDYuNDQ1TDIwNi40NDUgOTUuODc4OEwyNTUuMzMzIDIuMjVIMzMwLjg2MVYyNTAuOTI1SDI1My4zMDJWMTU3LjIzMkwyMDQuMzk1IDI1MC44OTdMMTI4Ljg3MSAyNTAuOTI3TDEyOC44ODQgMTU3LjI3NUw3OS45ODQ3IDI1MC45MjVIMS4wOTI5M0wxMzAuOTM3IDIuMjVaTTEzNC4wOTIgMTM2LjA1NUwxMzQuMDc4IDI0NS43MjFMMjAxLjIzOSAyNDUuNjk0TDI1OC41MDcgMTM2LjAxNlYyNDUuNzIxSDMyNS42NTVWNy40NTQxSDI1OC40ODdMMjAxLjIzOSAxMTcuMDk0TDIwMS4yNCA3LjQ1NDFIMTM0LjA5Mkw5LjY4MjE1IDI0NS43MjFINzYuODMwMkwxMzQuMDkyIDEzNi4wNTVWMTM2LjA1NVoiIGNsaXAtcnVsZT0iZXZlbm9kZCIgZmlsbC1ydWxlPSJldmVub2RkIi8+JiN4YTs8cGF0aCBmaWxsPSJ1cmwoI3BhaW50MF9saW5lYXJfNzg5XzE0KSIgZD0iTTIwMS4yNCA3LjQ1MzEySDEzNC4wOTJMOS42ODIwMSAyNDUuNzJINzYuODMwMkwxMzQuMDkyIDEzNi4wNTRWMjQ1LjcySDIwMS4yMzlWNy40NTQ1M0wyMDEuMjQgNy40NTMxMlY3LjQ1MzEyWiIvPiYjeGE7PHBhdGggZmlsbD0idXJsKCNwYWludDFfbGluZWFyXzc4OV8xNCkiIGQ9Ik0yNTguNDg3IDcuNDUzMTJIMzI1LjYzNUwyMDEuMjI1IDI0NS43MkgxMzQuMDc3TDI1OC40ODcgNy40NTMxMloiIG9wYWNpdHk9IjAuNCIvPiYjeGE7PHBhdGggZmlsbD0idXJsKCNwYWludDJfbGluZWFyXzc4OV8xNCkiIGQ9Ik0yNTguNTA3IDcuNDUzMTJIMzI1LjY1NVYyNDUuNzJIMjU4LjUwN1Y3LjQ1MzEyWiIvPiYjeGE7PGRlZnM+JiN4YTs8bGluZWFyR3JhZGllbnQgZ3JhZGllbnRVbml0cz0idXNlclNwYWNlT25Vc2UiIHkyPSIzNi4zNTM1IiB4Mj0iMjg2Ljc5OSIgeTE9IjcuNDUzMDciIHgxPSItNi42MDQ5OCIgaWQ9InBhaW50MF9saW5lYXJfNzg5XzE0Ij4mI3hhOzxzdG9wIHN0b3AtY29sb3I9IiNGRkNDMTkiLz4mI3hhOzxzdG9wIHN0b3AtY29sb3I9IiMyRUNERjciIG9mZnNldD0iMC41ODU5MzgiLz4mI3hhOzxzdG9wIHN0b3AtY29sb3I9IiM5RTdCRkYiIG9mZnNldD0iMSIvPiYjeGE7PC9saW5lYXJHcmFkaWVudD4mI3hhOzxsaW5lYXJHcmFkaWVudCBncmFkaWVudFVuaXRzPSJ1c2VyU3BhY2VPblVzZSIgeTI9IjE4LjE0MDQiIHgyPSIzMDMuMTciIHkxPSI3LjQ1MzA3IiB4MT0iMTI0LjIwMyIgaWQ9InBhaW50MV9saW5lYXJfNzg5XzE0Ij4mI3hhOzxzdG9wIHN0b3AtY29sb3I9IiNGRkNDMTkiLz4mI3hhOzxzdG9wIHN0b3AtY29sb3I9IiMyRUNERjciIG9mZnNldD0iMC41ODU5MzgiLz4mI3hhOzxzdG9wIHN0b3AtY29sb3I9IiM5RTdCRkYiIG9mZnNldD0iMSIvPiYjeGE7PC9saW5lYXJHcmFkaWVudD4mI3hhOzxsaW5lYXJHcmFkaWVudCBncmFkaWVudFVuaXRzPSJ1c2VyU3BhY2VPblVzZSIgeTI9IjM2LjM1MzUiIHgyPSIyODYuODA0IiB5MT0iNy40NTMwMiIgeDE9Ii02LjU5OTE3IiBpZD0icGFpbnQyX2xpbmVhcl83ODlfMTQiPiYjeGE7PHN0b3Agc3RvcC1jb2xvcj0iI0ZGQ0MxOSIvPiYjeGE7PHN0b3Agc3RvcC1jb2xvcj0iIzJFQ0RGNyIgb2Zmc2V0PSIwLjU4NTkzOCIvPiYjeGE7PHN0b3Agc3RvcC1jb2xvcj0iIzlFN0JGRiIgb2Zmc2V0PSIxIi8+JiN4YTs8L2xpbmVhckdyYWRpZW50PiYjeGE7PC9kZWZzPiYjeGE7PC9zdmc+;" vertex="1" parent="1">
          <mxGeometry x="346" y="544" width="158.61" height="42" as="geometry" />
        </mxCell>
        <mxCell id="3a8J2WZS9e_OBkugWrMs-6" value="BigQuery" style="sketch=0;html=1;verticalAlign=top;labelPosition=center;verticalLabelPosition=bottom;align=center;spacingTop=-6;fontSize=11;fontStyle=1;fontColor=#999999;shape=image;aspect=fixed;imageAspect=0;image=data:image/svg+xml,PHN2ZyB4bWxucz0iaHR0cDovL3d3dy53My5vcmcvMjAwMC9zdmciIHhtbG5zOnY9Imh0dHBzOi8vdmVjdGEuaW8vbmFubyIgd2lkdGg9IjIwLjAwMTA0NTIyNzA1MDc4IiBoZWlnaHQ9IjIwLjAwMTA0NTIyNzA1MDc4IiBmaWxsLXJ1bGU9ImV2ZW5vZGQiIHZpZXdCb3g9IjAgMCAyMC4wMDEwNDUyMjcwNTA3OCAyMC4wMDEwNDUyMjcwNTA3OCI+JiN4YTsJPHN0eWxlIHR5cGU9InRleHQvY3NzIj4mI3hhOwkuc3Qwe2ZpbGw6I2FlY2JmYTt9JiN4YTsJLnN0MXtmaWxsOiM2NjlkZjY7fSYjeGE7CS5zdDJ7ZmlsbDojNDI4NWY0O30mI3hhOwk8L3N0eWxlPiYjeGE7CTxwYXRoIGNsYXNzPSJzdDAiIGQ9Ik00LjczIDguODN2Mi42M2E0LjkxIDQuOTEgMCAwIDAgMS43MSAxLjc0VjguODN6Ii8+JiN4YTsJPHBhdGggY2xhc3M9InN0MSIgZD0iTTcuODkgNi40MXY3LjUzQTcuNjIgNy42MiAwIDAgMCA5IDE0YTggOCAwIDAgMCAxIDBWNi40MXoiLz4mI3hhOwk8cGF0aCBjbGFzcz0ic3QwIiBkPSJNMTEuNjQgOS44NnYzLjI5YTUgNSAwIDAgMCAxLjctMS44MlY5Ljg2eiIvPiYjeGE7CTxwYXRoIGNsYXNzPSJzdDIiIGQ9Ik0xNS43NCAxNC4zMmwtMS40MiAxLjQyYS40Mi40MiAwIDAgMCAwIC42bDMuNTQgMy41NGEuNDIuNDIgMCAwIDAgLjU5IDBsMS40My0xLjQzYS40Mi40MiAwIDAgMCAwLS41OWwtMy41NC0zLjU0YS40Mi40MiAwIDAgMC0uNiAwIi8+JiN4YTsJPHBhdGggY2xhc3M9InN0MSIgZD0iTTkgMGE5IDkgMCAxIDAgMCAxOEE5IDkgMCAxIDAgOSAwbTAgMTUuNjlhNi42OCA2LjY4IDAgMCAxIC4wMDctMTMuMzYgNi42OCA2LjY4IDAgMCAxIDQuNzI3IDExLjQwM0E2LjY4IDYuNjggMCAwIDEgOSAxNS42OSIvPiYjeGE7PC9zdmc+;" vertex="1" parent="1">
          <mxGeometry x="456" y="286.75" width="67.5" height="67.5" as="geometry" />
        </mxCell>
        <mxCell id="3a8J2WZS9e_OBkugWrMs-7" value="" style="image;aspect=fixed;html=1;points=[];align=center;fontSize=12;image=img/lib/azure2/analytics/Power_BI_Embedded.svg;" vertex="1" parent="1">
          <mxGeometry x="676" y="286.25" width="51" height="68" as="geometry" />
        </mxCell>
        <mxCell id="3a8J2WZS9e_OBkugWrMs-15" value="" style="shape=image;html=1;verticalAlign=top;verticalLabelPosition=bottom;labelBackgroundColor=#ffffff;imageAspect=0;aspect=fixed;image=https://cdn3.iconfinder.com/data/icons/document-icons-2/30/647702-excel-128.png" vertex="1" parent="1">
          <mxGeometry x="119" y="291.5" width="58" height="58" as="geometry" />
        </mxCell>
        <mxCell id="3a8J2WZS9e_OBkugWrMs-16" value="" style="shape=image;verticalLabelPosition=bottom;labelBackgroundColor=default;verticalAlign=top;aspect=fixed;imageAspect=0;image=data:image/png,iVBORw0KGgoAAAANSUhEUgAAASwAAAEsCAYAAAB5fY51AAAgAElEQVR4nO3dB3hTVRsH8Dc7neltuiilhL33EATZyFAEZchUcKH4obhAQUA2stwIKi6QLQiIyBQQEIGy9yilFLqS3u7s5HvObYvITdJBKQ3+fzx9Hs05SU7ueO+5555BAAAAAAAAAAAAAAAAAAAAAAAAAAAAAAAAAAAAAAAAAAAAAAAAAAAAAAAAAAAAAAAAAAAAAAAAAAAAAAAAAAAAAAAAAAAAAAAAAAAAAAAAAAAAAAAAAAAAAAAAAAAAAAAAAAAAAAAAAAAAAAAAAAAAAAAAAAAAAAAAAAAAAAAAAAAAAAAAAAAAAAAAAAAAAAAA5ZqkrAvndDpFrwEUZu6MNc9v33OwU6AiyOIpa6aVV04c/9zERzrUjxUlQqmTSMo2hMhFrwCUQ7u2H+++fc/GfkQVCincDRoyoMcyBKwHEwIWeIWw8KBEokjSqsI8FtdgdpKfvzpLlAAPBCl2IwB4CwQsAPAaCFgA4DXQhgUeDX5q9qKYM+caBCndP50zWsxKX5XKcvDkJx1FiQClCAELPDoec6XlxfiTTYi0HrKZiMiXF70MUMoQsMAjbUhgCsUHk1bFuc2WYzaRv9rHKEoAKGVowwIAr4GABQBeAwELALwGAhYAeA0ELADwGghYAOA1ELAAwGsgYAGA10DAAgCvgYAFAF4DAQsAvAYCFgB4DQQsAPAaCFgA4DUQsADAa2A+rAfYxnV/tfTxVeV4+oVGo8Wvsi7sSqMmVQ2ixFJyLOZK6PVrKVU8lcXpdEptVru85xMtj4kSAfIhYD2gfvp+V9ehI15bRRTpfuY9QRL16dZ32frfJw8TJZWS8W99u/D3QtcUtLOpAPk/9yxp2rZdvThRMvznEQLWg0uhlJuJArhAqZ/H35jpCLjn6/j5+auziQLIU1lsDjvlkoSTy6U2USJAPgSsB5RUKnGw3atQFLKLzXKSydwHiaREPooomQxmuyjtH0YymXx9RC/nk8tl1sLKIrFJSGqXl/nS5+Bd3B9BAETUrWfTDRUuBF4MVAaa3W0Pk9Wi8lGq3KYDlBYELPDo82/+N8FTOkBZQrcGAPAaCFgA4DUQsADAayBgAYDXQMACAK+Bp4Tg2fWxb5IxrirJZG77apHDKSXW76vaijGiNIBShIAFnqUuHk3pmTpSeMjF+pTKiEfAgnsNt4TgmTI6jtREhf+hhzrcewhYAOA1ELAAwGsgYAGA10DAAgCvgYAFAF4DAQsAvAb6YYFn9iyN0M/K06VNmNvPKXoZoLQhYIFnioibpEwJJ4XcfU93u0PqqSe8g/WEJwfZ7Q5R2q2PsDuI/XMi7oEHCFjgWd2Dj5P5qpRUVdxHm0Kk89nBRAZKtyk9ZMxbhMJq9ZgJ/uMQsKBwdxGsmHcm9J/Y++JDy33VvkZRYj62zJfFZpM/0r5+rCgRIB8CFtxzXbs3PcP+sKXhbnlqSgUAKFcQsADAayBgAYDXQBsWePT1wi29ryUkRvsqfSzu8rHGcqVcYRv/wcDFokSAUoSABR7NnLzywzj937WIQjxkYw///Hh3Act+mZfbDblhEmEFaHecbOZSmaJFZJKbDAAIWOBZVHRIXJy+Yi2tKthtvhyzifzVPm67LGS8uvW73G1HhsqIE6X9w04OMvOhf77cWNm2UrwoGf7zCG1YUM54imgAqGHBvSdRycwSUpBE7uFws0lJQg4SFrMAcAM1LADwGghYAOA1ELAAwGsgYAGA10DAAgCvgYAFAF7Dw3NmgNLhSM6JsBNPZPO0OjSbb9RETrNNLUoCyIeABfecekCd5dKKPglSf98st9/lcEodVqtCVjEQvdzBLQQsuOf83npoOfvDloa7hTYsAPAaCFgA4DUQsADAayBgAYDXQMACAK+Bp4Rwz/3vxc9nbNq2pwenDDG7+y6b3aHIsRul69dP7tq4aTWDKAP85xECFpSFK5cTq8fHn28STxU8fJuw8jNlZ5sCiC0TDeACAhZ4ZLHYVEQWMpvdT8duIispTHIfUUI+jcYvg00mqlVpRGkFbDY7ZdkVpFDIbKJE1q/U7pCzoMbyeWYXVpH2mAW8FgIWeOR0sJPfKQyccc9RSPrdy8jI1RDxlGFXFfJZPJlMVrfBE7wbAhZ4tHLj+M65RqOPTOL+UHE4HSSV3NtKzdvj+01+ot9DK33UapMo8Ta5RqP6kfb1tosS4IHg/igEIKKq1SLYLZr7MYBlpF3HBpfZH/bJfxvu9QHAayBgAYDXQMACAK+BgAUAXgMBCwC8BgIWAHgNBCwA8BoIWADgNRCwAMBrIGABgNdAwAIAr4GABQBeAwELALwGAhYAeA0ELADwGpgPC+65lOT0CKJEMpglHr7KJszpbjZZ1aIkgHwIWHDPdenWZLPMz5ajUXFuZwu12x1yo90sDYsIShQlAuRDwIJ7bvwHgxaPp0GLsaXhbqENCwC8BgIWAHgNBCwA8Bpow3pAmYwWPyI9GcyFreNnoHQ+Wyt6GaAcQsB6QEVEcgn1arU+EBKozfD0Cw1ZaQENG1eNESUAlEOeOsbcE06nE8cBwANCIinbEII2LADwGghYAOA1ELAAwGsgYAGA10DAAgCvgYAFAF4DAQsAvAYCFgB4DQQsAPAaCFgA4DUQsADAa2DwMzzQxo1Z8u6v2/f2CFIGm139znSLXjXwye6rJ04f8oUoEcodBCx4oJ0+Gdfk7Nkj7YgquPmZCXS+Vr1zopehXELAggcax/kbiEJIq+Jc/kyD2USaID9elADlEtqwAMBrIGABgNdAwAIAr4GABQBeAwELALwGAhYAeA0ELADwGghYAOA1ELAAwGt4bU/32MuJ8qtXk2uk6TNDU5IzIhQKmTUsPCgxNEyT1KZdvTjRG8rQ/r1ndIk306IcdoecLcOoVMtNFSK1Ca0erp1wP8tVEnt2nayenJQeyVafszscUv9A34yKkcEJTZpXTy2rMhzcfy6abU+LxaZk/69Uyi0RFYITWretEy/KfJ8di7kSevOGISorI5eTSCUOhUJmCY/gbt7vY/JOh/66EJWYZIhMSuCjc41mNdu/coXcFhmljY+MDE5o1ab8bVu6HwFr228xDU6fvdLAV+lruTMt15qrrFOzyrkevVocE72RiE6duqr5ee2+wX9uP93j1PGrzVKNaZFEbGFWR/6asBKSkIKvGBqS0rRJ9cOP9W659qVRPTeIPugemD9n7dCtG2P6nTt3vV5CWqqWyMrlVWCdwp+UVLwuMjyhYYMqJ7r1ar7u5VcfW++uFEu/29lNz2dwPnKl7fbX2ScZLbnKtm0a7W3Zupbb4PfZRxsGSklCMpnUdmdariVH2bZt490tW9W6KXojEV25kihfvXLPs9t/Pdb77JlrjZKz0gKIbLf9FiI1+fLValY416p17X3PjOi6uF37BrGiD7pLi7/Y/OTmDYf6nTx1tdH1pNRIB5m5f9b9dZKElHx0aFhK3XrRJzr2aLSpT5+HV9eoWVF0TJWFX9YdaLn+5wNPHz504eFrl5Nr5VJO/jggSf42k/ORGm1GrTqVTrXtXGdrvwHtljVsWNXlitx//nGq+uGj51v6KnxEv8VoNSmjKoQl9B/cbq/ojUXw43c7uv264e++x45ebhl3PTnaRqb8cjpuW1NZIhyrUdpQQ+26Uaeat6m559FHm25u37Hh5fuxbe9U5is/P97x/VW//rFiAFFFURpRCjWq0eHg8Ytftr791TMnr2mmTF06a+PPBwaaKZ0jUpKKAshXoRJ9gtPhoGy7iWyUzeoEfMVQXcprY56YPXb809+LMpeCt15bNH7JN9tezTAm+xDJOQX5kZ/ch6QSCTnzT3AWRu0OB2XZjeSgHKFc2oCKWSOe7/rl3I9enH1nKZSSx9KsdJMjCrzz1xFRIr3z+rj35nz8guh9zNEjl0ObtRh8gUgmbCex6/TuG++Pm7XguTl3Jr068vNpS3/Y8UKWOSWCSEVK8iNfuSp/dV9n/i8hslptlEW5RMJvUfBP9em0+uMFo0ZVqhLiEH1dMU3/4KeRCz/dPDaRv8ax3yAjP/KX+ZBMKhVtT7af7UIZrOSvCE19eliHJePfGzSxavWIW4F6aN8PF/607rdXtKowlwUxmBPplRFPz1747ej3RImF+Gnpjk5zZ62ZcuLc2XpETo7Il/zJlxSKgnpA3jZjq53n2ExkFbaZmVTE8b36PLT6vfFDPmjaolrS7d/yRJdJKzbtXDGQKNLFl+upZsVWpy4kLGkoSvJg0Rebnpw7e+3k2ITL0URSTkJ+FCD1JblMmlfC/CjA7gbya9KUI5xDRiJicdOXb1K75pmnBrRZPuyZLl9XrhZ2a/uW9crPZV7DCgnTJLOR864OIINZSWq10nT7ax/OWj180vjvFlgonfOhUApVR5HD03L3Uhlp5H4kkfiz/+NupKZy4ybMX7Bi1R/Dvv923MBGzaqUyq3Mzt+P1Xtx5PylV+Mv6uQUwoWqK5KD7f7biia57Xogl8qIk/vnl0vC8VlZ3LyPvx67etUfQz/7bPQLT/RtfbAgb6hGk5GaQVygyvdf38kO/DQLUZCHwbrsdklN4ZyCZKRUKUTpBrOTHA7Hv9ouf1nz18OjRi34NlEfF6akMM71Nv7nt7DP1ZKGpJIgMpms3LpfNo3cs/t41107F7Rs2FRnEH1pERw+cDFqxAtzV5w5d6IeG7Icoq546ze7255Bcj8i8hMuDpkmY+iSb1e+u3b57mfmzH951Eujegg1a7vdcU+O8T49J/+wYcvWXkQ+XLAinNVmPWwzCQXK2L70JalESjkmE7f2ly0jf/5l/4D33xs0eerM4Z8VvEMlHP/hbs4POVWIDHZbs3alV/eJS3/duvUxogBOq4oUAsy/t+ltpc3/H3n+OSRsW5KQxWrjjp2/0PbY1Ji2M2csn/bGmH6zZ8wbPs/F191z5arRnVVGMzJyNQX/P7DvjIXvjp+7wEHEhamjyVelcnFQuMZ2CvsLUQdRsKIyd/zkqU4tW7587vdNR5q4fEMxLPxo08AuPV7782p8QpMQlY4LUvvnlasIRROyOZ3EqQMoVF2Fi09MrNe735u/zfpg5ciCPDnZpgDZPds1EsrIyLk1dcG8GWuff3LAm78m6g21QtVVuUC1b5G3McunVMkpVF2VDOmpVdu1ef3k1ctJxQ4Q61btb/tQm1Enz5w711ar1HEhas2t/VfUcvir1BSm1lGGyRg58tVJ370xatEkEi6Qgcl5tzyl4/jhqxHRkYNOb9iypZdGWpELUYeSRCopxjZzkI9KSaHqaFKQnJs26/Mpjz06/qeC9PR0tm9KJ8Y2rffKnl+3bnksSBbNhai1wmtF3aa3yktOkitkFKIOphB1NBntydpN6w/2F2UsI+XsKaGElAqZlf3XkH6zF65at26gRhbNBakDyO4s2UHHdpBEShSmjiKLw6bt8cTYnVs2xpQ4aH02b+PgV9+csVBBAVyYOly4TSnuQVBQLnbwhqrDSE1abvyUBbO++2rbYwXp0nt2ty4hY67Fh/3XFws2DXzn/XlzVRTMhapDhfKU4Kfk/Q5VJGWYkiOH9Z/zmyiDB+tWHmjbd+D4jU7holSRSFKy7cnYhe3Jkb8kkvv4yx/GTBz7/ZsWs00pI3HTQUmcOX6N69j+9ZjridfrhaqqcHKFtMRlZdssUO1HQfLK3G/bt/Xo3nnCCsqbDkdfGi01Ax6f+d2xs4cbaJVVOblcIion+wabzU5Gs4UyzbmUZs6iHLOJjGazcMt/p3/er6Knh7a/J80rRVGunhL6SJUklUodT/ee+dXqjdv7Bcl1nFwuyws6rGpqsVKmk91Xs7YAe/67ZOydrEWLVCrFrXaOO7GDOUwdQikmA9e794SdR48vrla/UWW3t1aubF5/qOVr73z4uZK0nEbt7zGIsqq30WSmHCoob0G52M2aDwUq/IR2GXbgBqh9SWIK514d+fnSHVuPrdRo/Pj09Gyt6ENLCccF8OxJ5v/emrtQRVouUKgh5v2WgvYhs9VKdnKQnKSkVCj+1YbkioMcFKysRPuP72v+/dfbHxv+YtfNLrL9y9/7L0T3HfT+RimpOVYT9rg9b+1/ti1Zq0HBSaUgKdueMl9ixwr7HWqViuS2Ctz0uSvmh6gDSaMMpiJVfwvRs8f4P9ONaZGhqihy3Dr+xFhZWTDItOeSQ9j/1vw8dxyrTqdQZq20Krd1195u/R6f/l06n80pJT6izyyODT//1WrN5k29A2SVOInk33uN3T7bbA7ibalCefwlgXy4huMDg3z5lOT0CiajxSfTkc2ROVsITiryJ3+VT/5vYvtHxbdqU2f3XW/MEipXActPqabYK0mtjl+61CpYoSWpTHpr56fbU9jGiqtbuUp8sxY1DgVrAwwOp1OamZGrOXbkcvOTV65UzTIbdRppOGvHuXUC3i7vCqylVNNNbuCTM7efjl3cXJTJgyGDZ65nbRaa207wO7E2ilyTiXJIT0ri4lrUrXW2SfPqR9Q+SqPT4ZTeuGGoyMp7NSU2jEih06pChAPKX+3LAhy3fN2uV9hJplTIS+EUE/OTaVhXhUlbfj08SUq+VBCs/ik3L5zcPsSRn1JFORYT5Vh5oc4XJNMKDcpuf7uUXbf9uY9mrZtSlIA18MkZ24gcnNZDsGLlMptZoGL73yeuQdVqsQ0a646HhmpS7Q6nNCkxrcLxmNjmlxNjI8hOumBFKGvGJLlcTkHkT1aLnRRKeYlqjrdjNZb4pEuRIcoqboMVCwZ2u5MMVlZWiqsWoUtq2Ljq8ahKIddZF4c0Q5b2+NHYpqdjY4VjNYBCWJstkcRBWmUEt27zvuH+pKZAVQA57+I2dv7Mnz9gD4DUCsW/blXZRdTqsFG6LY3v2fmRrYOHdvy2ZZvae2rU+Ofp6sXzCT7nzlxvxGZq3f/nmQ4HD5xvZzDfiGCBltVUozQVMjo/2vi+zdBargIW27gKhYyCnUFCAyBr0+JNGWSjnLi+vbtufHHkY4u79Wh2VvRGItq143j1b776beSKNdv6yUw+umC1hhxO8YHFTjatsgKduRpTddqE5aMnzhj8mSiTC0/3mvVNhummT6iqivsTViKjVFMq61oR98qLA79+7oXu3zRvWSNFlJGIVizb3fazT355/a8jh5r7ScJ0rH2OXXWVTjk5HP80gJY2P4WaLlxKEGpPQlsROzXYSWa7QUrS8AP79ljZs2eLDbXrRp/ScL58mj4r9PKlxFqrlu8e/uv2PT3U9gAuQO3nchuwGkOglKOTVy9W/WP7iToduzZye2C/PnLRtLjUs2EhymouP4vyg1WqiQVLW9zQQb1WPvvsoz906dbkvCgjEa1fs7/lZ5/+MvqPfQfaqqycjt1usYZwVqkp6W1bgQ1rD7Ras3lDb428EkdSh8vKGitrlimXTJQe1+7hhw68/nqfT54a0PaQKCMR/bHzRPVFX/76yuqfdz2VbZLpWPsQSezEKYUHRXcVrC5fuOlz6OiFlmriRO1qbD+nWw38O2OGzpnj4uk0U7N2lLFm7aiDvfMeAn15NTZJun7V/meWLt35/PFzO+tFVqpxX/uTlXm3huFPz/30+1UbRmtVEaK027GTX28ykJTkcV99PebF517otkOUyYXly/5o+9yw+UvNZNSFqUPJ7iJoSYSnSlmklCoNWfYNIaIMd9i350zVRzq8csRfquVUCtcxPi9Y3aToiEoHf1wxblD7Dg2LtGMnvffDy9NmfzNORRrhJHN38tKtp4QpNGPyKy+P/2DQYlGGvDnMNS0ajU5395TwdjKJlDJMOWSmdL5v70fXTpg0+L0mTau7fcq3eOHm3i+/+tF3/jJfTq1QuwwErEasNyfQ26NHTJj76YszRRlY1SM2WVqr2nC9hKRC8HP1OVKSUqpZT8F+QWe//u6NEU/1d33y3+mjuT8PeHPswg/lpBAuWu5qbgWK0q2hdvQLxy9cj20Uqg4RBQHK345ppkzWDSBu/oejx705tu9qUSYXNv3yV+PhQ+f9lJaTVjdUHe7yAvvvsqZR+xZNt+w+NLenKDHfih//6DT42Sk7g6Rakin+3USdbs6ialGRJy5c/7ax6I1FMGXyj68EB2oyRr/Ve3lB7rLu1lAuh+awqnWGifWrk8Tt2jm3c1GDFTN4aMd9W7fP7KqSqWLTTRnCle9OQk1AGUDZjpvSSeN+fFOU4Q7sFod1nvRRug4AwsllSqFK4RUP7d67oH1RgxUzddazixZ8+MY4M2XEmazmMjsA2HbJNLNglcXPmfH6m2t/mfSSp2DFjBz12IYJbw+bmW038O7OrbwWEwUdP3qlpSgx3/yZa6dZKI0LULoJVhIp6c1pxPkEnt+7f0GbogYr5o13+q5euWzSMBuZ4rItxrvenst/2NX1wvWz0Zxc6zJYsc9n38OC1Y9L3n++qMGK6dWn9fEdu+e2D/LRnDeY0lweq8WVkKCPZm18dwYrElp9LVQpKrzEPdgnT3nmy9uD1f0g/lXlgNXGNm1W3LeL3xnZrlP9Yveibt+l4eWlP44fxj7DbBM/8RBIWUN+ELdq2d7horTbXLuaLP1926HH1OT66iocsNZckpIsbuOvMx+rUiNc1EO5MG+MfWr1q88PXJJlT4krpEJQaiw2K5mcBv6LBW+Pemd8/yI/9Zk+99l50aHVUjKtWaK0AlLyo9hLSTVFCflWLv9zuIyCySkVb0/GZLOQkyxxK1a/379eo8rpogyFeHpI+33TJ46clutIjXPc5fb84esdr7L2IJlMlCSw24lyHfq4Ke+9OGvYc112iTIUoknzqvq1P3/Q10GWOKPVfNf3PFarXcUegbgK1D4Sf/r7+OlmVy4muupR7BXKXcBitat0m566P9Jh3/CXum4TZSii/oPbHniic5ddmbbkf3U4LMBiT4AsgC7evBy1Y+uxeqIM+Tb8/NfAXKeB81eqRWkk9KwnMjpS4959Y8hHjZtX0YsyFNHn37w6XRdWPSXD4nLERqmSOKWUYUvmhzz15MpRb/RaWdzP7tXrofVWoYe5az6koOQUPoI14N6ZYdVPezrojdd9AlnHRBfxiu2rLFsyPTewz8pujzc7LcpQRBOmDvq2eb3mZ3mLweXJWxSXL95U7t1/ph17AOGiqMLn8lYDNa7V+OKkmUO+EmUoos49Gp99fmDvldn2ZJI47i5iaUMCU9gIB7tdHKnZQ60cU27kE49P2nP6RJzrZYTKuXIXsCxWdq8hjXv3gwGTRYnFNH7aoIkSUsWZrFaXb1QK7VFmbvfOk91Eifn2CGkKt7WBbEsOhfhVyp2xYPinosRiGvPWU/NtlB0ncd7b28Isaw5p/SJylv08dpQosQhaPlxrrzCez00xWZuOiSxcSlK6aDHA3TtO9GA9K2Ry14dejtlMagkXN2nmkAmixGIa+17/WU4yx7k6eYvijx0nepgojVPLXTcFOB3smDDHvT2234eixGJ6b9rAiWpJcFyOxeV6r0VWv0HlY0R+vNUqvmdnt+shqlA6e+lyq9bNxlwaM2rRJNa9RZSxHHN91NxHGfYsalitTmz7Tg3vekDtQ61r3WxZv+HpbEemKI1udYbzoZjDlx4SJeY7d/Z6Azbc1+UlVhgZlkGP9WxVrM6S7rw+ts9qzqeCKdtqdJOjdJidmTSgf8cSt0VE68JiWR8dm9V1ICgY8Wez20Vn+rEY1rbl67LtijFSOnVu33x35Sphrj+8GPoPabcvWls1LdPqvjboydEjl1ux/l5SmevInGHJoaggXfqQ5zoV+1bwTtWqV7B1bt9st5HubolENiuELiQiJYeyXdYsWZeMMHUYWew27Sdf/jilffu3jzapO+rPF4d9PPeH77d3PXr4kuenYfdZOWzDyqVOXRtuF71cQh261N/JTgM354fQQHwtNrmG6GUiOns6PuDmDUO0j5ue0g7hCiunDl0blFp5H2pe+4jJWbITrEjyD+J2netvKelHaLUBKf7SALLYXddcKf/xs1QqFV3mb8TrdTISxTFBXhCzUnthn5WONo/U3WsXOu4W39UrSdXJzb4noetqLrVuW2efKKGE8o4jh9tgXlRDR3T8ykk87649lD05DVD5kFZVkfwkau74uYttv1n289vDR0zf1qblG2dbN31929tvLH53/74z0aI332flKmDl7ScHNWhc5bgosYTqN9SdZDUkh5vWVyUpKD0tR8sa1+9MS07iIzPsmVq13HUbpd1uJzn5UYPGVUutvPUaVT7xTy/u0mez2oSe9pWiQ0vcn8bHV5Xjo1QKfbmKI+bQpQg+I1ujdtP9L6/G5k9161cucdvVneo1rHwqb8aB4ku6aYjyFLDYfmrSrFqM6OUSatSk2nE24Likt7AFps0ZviBSUzPDYEkp9Mkj61TLVsVm3Yy0yjCSk5w7eOx01/kf/zCr7SNjjndpP3bNhl8ONBO98T7x/GvKmN1mF27RQsOCXHa2LImIisEJElJ6CFgyysjOjk5NzRQNj08W2mDs5G6fWxw24tT+57lg/zRRYgmFRwQlub3/LAUsyCrY1DEqRYnnjrLbHQrWX8zVwwxPMtJzuBwycTKp60durM+cD/nEVa4SVmrza1WqzAKzPL82XDypKZkRCjfBNY+DIiKDXc4rVhJh4UFJMpLlt43dnZ/WvtudyMnrTXzRu0tISOi8rFUFU6i6EgWSP7dz78F+fZ58e3vnDuPWnDlx7b431JergGVz2ElJPmyEfakFrMJOKdaHyko2NvxD9BjQbGKDhN1/goVspA0N1FetFlFqVaLwCC6pNGcXuBMLMqwntd3uKPN9n3c36n57OoW5wGSsVuy60bEEFAqZjQWsktxmsWPC3awZtvyLa0hoYImfDN8piPNL1/oGkMV594dThy4NL6xZNuMpCUl41qHZ6SheJ092QVIIM3FEkEYSwe3as7dfs+YvX1iz/M92osxlyPXeuI+E+UNL8WRiY7g8nSQeOZ0eyyEMFLbZPUTDwUUAABSaSURBVF2Ci+1+BJKyVXjgiHNxe15SEomkxNHfU5DLO/kdrN9Tqe1/h8MpdQgD/UtHvyFtdx/Y/1nDJvXq702zXuP1pjRy2JzFqhmz8siVMmLTO5ltttABQ979ZeUPe7qKMpaRcnVyKGQyYv17UlIyRLdnJWW12JWeThLWDqOWqgx+fipRT8gADZsoz+m2VqAiOaWmZoSw/jqixBJKSUqP+K+uDcK2sslp1aXpMwsdLlVURqPFlzXkl6Qvlq+vKtfmprYrjFMkIxkMWaVW1oz0nKA0YzYpJaV3DXzo4ZoJR09/2X7B/HGjalWJjuHtSbzefJPSzdlks9qLvF3yZjsJJin5c4OGT13FZrYVZSoD5erMkMllwtQhN+L1pfZ0gj3pcZKRZG66KrPbOk2AX1bjptVEw1JCQjUpQvuHm0ZQhVROGbac6qmlGGDj41Oi3QVIb8c6NQbKfA3s1t8VNoWNmYwUH59aavs/Lja5qtA1QVr8bcoWj7CR+yeh7Ni4UYplTbieGuVgD1xKUNbCvPFm35XnY79tvmzp1Kf6P9l9cZQ25HKGI4PXm66TwayndHNO3jROHgIYC1psZg0iE/f6S4t+EmUoA+XwUq5g/V9aiF4uoRMxV5qxK6y7A9ZKVgoODUgSJRBRhYrB8VpVUJLR7rp9WirMiZ3L+hYVa5oaT44fiW3hei5279ewSVUDp/HnzW6egrIpYdg88SdiYpuKEkvo9LG4JkI/uhKIEKYj9tSRU0FHD10ptWP1WExsc6JstxfX0jBkaKfdq9e9/3KcfmmN3zbN7vjhzDdH9H60/bLIMO25NIuB15tuUq7ZLLTtusLatvwlYbTv2NHm+/acruoiyz3lulT3ERuHtnfXqU6lVYLdO051kVKA6PV/WKhWnagzopeJqEbNSAt7/G8mkyiNbs3/RPT7xsO9RIklwG4tT56+XN9X4lcaH1cuVa1R4YLdTRDIu7iradfWE25HHhTX3n2n2irIv0TvrVqjwkVPAUsp8aODh866HeRdXHm/W+l2BEFp6/F4ixNj3+v//S9bPxgWn7y07qb1s7sOH/LkAomMDKnmJKGty1WNSy2MEMnlftt4uJ8o8R4rdwErSOFHV5Ivha1d/ufDosRi2rTu76bnb5yLDJC5PmDzGh9N1LJVLbed/xo2rXqY5XG140h4TsTR9l1HOrEpU0SJxbT0m50vZNv1VdnEeQ+qZi1rHGCdg91tT39pEO07eqzpsZgrd9029Om8Df30Odd9A5WiIY1F0rpNnT1shk3WUO1KoNKXUrOv+38+f+Ndn7js9+49HNPcT3L/eg483uehmO+WvfXWX0c+rtGudfNNenOqy86neSPHZHS9FG+Hi6r81bBkrDKq0k3/4KcposRimjJx6TQ2qyebFNCVXIuFrWfCd+nWxO3smN16NNvE+rOwyc9cYcHFROm6SWOXznWRXCyff7n+FZWEy1t95wHV+VG2rRU8mwnUFWGWTDLpJo9betfj8xbMWTtOToE6iZvmgMIMGtZhl0YeYmNLXrnmJAUF6ubNXfOOy+RimDz2xw/Z73Y3hVFZati4Kr/nwPwnqkdFx2daRM+i8snuS0tr+evWwFaUUWrpxKUT1ce+tqTQuarcmTL+p5dizsbUZVPmuno8za7wuc50atWg/onGzaq5Xfpr8LMdt4f4VDS6HY8mdVKALIyW/rzhqY1rD5a4Latn5/eXpGUn+QcqXdcGHxTdH29+okZEzZtZjkyXtSw2QFcjD6dNO3d0+v6r7Y+KMhTRyGc+nXYtNTYkSBnkcv8XVdduTTdbiBdmERGXlUijDKJryVfCXhjy0QxRhiL68esdj27ataNToDzc47z5Ze3xxx/eYCV3s4e4nsLmXiuXz89Zx1x/WZhu7mffj/503i/Frm5/s2hL9w9mffUe+ww3narJLlTzjfzzr3ZbIEq8w8DB7b63UZrL/ivsXFArlCQnX12/p6eu2rvrVLEbIv/38hfvbtm1sxOniNQ53DxGf5AMe77Tlw5Kd3m7wSjlclJLNLoRI2ctXrvyz1aiDIWYPW3VM18tXT00UB6mE6Y0vgsvj+45j9UI3c+r5iCNPEK3ZPnqwVMmLHtJlF6IzRv+bvzsS7MWqyQanUp+990Z2ODlZo1H7Vy9fO9dd/A05ph93YcIm/AUVfTyPeauNPcVuyL6KNSkJo3u9XcWzB096ouxRS3PW2O+GvPiK7O/VJG/ztfNNL7sasnb0qhySO2U50d22yTKcIe3J/SbqKAgPtPsZgS800HBao6sDmvVTp3f2fnJ/KIH2b69p3zyxeJlIzWyCJ1c9t/ofzVx+uAvglTRZjb3l7vtGajyJykpdP0HfbBizvQ1Q0WZ3Hjp+Y8mvTfpsyk+Ek6nkis9DHovms7dmpzp0PKhA5k21+Py2Ocr5Qryk4bqPpi58L0XRnxU5KaM+bPXDny8z4T1UpLrNKpAj9NjF9XF8zfqHj3xR6enh0z4pXunCavYCjol/ayNv+3vo5RoRK/ntemp+CbNqx0UJd5j4j1QTuQtf+VHAZJg3edfLn+lZtRz+2dNXfnMcReNsazBctbUVc/UqDhi/4JPfnjdj4J0gW6W4WLnh0VYdy2bn71gRJHmg6pcJdzxzhsDZ1somXfThUgYB5fXsU6mG/P2vLltmr6x/ruvtj169Yp4YdH9e89Ej3t7yf/CgwaeWLdx+xPBioo6Zf4KJ2zIh6sg+6D5YMqwcTYy8HY3bYNs37Glv1Tkoxs38eNpzeuN3vzNl7/3vHJJPFvm0cOXwmZOWTG8WoXhf3397ZoRgdJQnb/KV7i9YvNCsXGELuJikc2Y+8z/iKQ8W0HIXYD1VfqQRhauW/L92meqhD/z9/TJy587duSy6Fi9cjlR/s3CLT0favjaprff+3iWktQ69jsdecOlhD9XNfmiOrj/fHsijjTyUG7rH38O6NPv/d9aNXz9j9kzVj1//OiVIi0dd+7sdb9HWr3xa6IhRcuWo7sTa9MLkGkdg57peNfT6hSX6GS636TCen4WNjUJKZUSYTCm2llRd+nGDd34yZ8/PHNySFyVahGxERW4m+yKl5SYFnHlcmL1bNLr2Ej3EFVFod+l26uVQ0oZ9ji+b48+mwYO61DkDT5jwfA5Gzf+1ff0lTMtQ1UVydWtGzvJNGwhCYeP7sCxE7oDI2P6hPlWOFspOjQ+okJwUk6uyVcob3xitJUydArS0D+fJaFcs4lNfEchysASDdb1Jq+P6/Pj2rX7Bu47sr9VmLoy52qxEHv+mo3+Th9dzNmzuhdHnegZoo44X7V6xOWw8KAUNiwmOYmPuHjxRs1cMugk5E+hqkq3Vp3JMRmFkQzBvgHCcl8ljQMPt6sX9+bLwz5bsGjRaLWjKieVkqjmJoy9kysoVF5Rdy0lRTdx6sKWs6auiqtVs+LF8Apcklwus7EOxlcu3ayuNyXXZn24gpUVhK4x7CGLzW6ndFs2Bcn976oVK+bQpdZsvjG5TEah8gg23Tj396nTHf4+daTD1PeD5zZuVP1YsxbVD9apH30iLCwoKSRMk6xWK4x6fWZoQry+yt4/TnXZvOnvpzJt6aGhqjDRCj7skZiF9NS/91NFnru+NJW7gGVzOCgoyI8S03lymJXCst5sh2pVgSSRaCjXZNaduhKrO3Xln4VUfdkgVHVk3vLm5H7JeGGxCEsCX1vXIHbtbxOeFWUoxMp14x9t0WzUpVRzaihbsdnVKicFvYVD2AorDidl5ObUTTnP16XztvwKrZwC2M1ufnlZsGKB12BKp/CA4PhXxwya/dUXm99M47Orq8rBE6N76c/D83qGcX2vpKQncWyQrbvtybCl1tksBlmm3NqHTp+rTaft+YN5ZOR32/4v2J5sVSQJyfhx456esvqnPSMSEvSN1CpR5azI5n/54uSjxy822X1wj7CcPluhWlTW/CbzYFUASSSBwrF67OJlHV205zfRy4SlSbWqcOEYKfhtVrudMqzJ/LgxI+acPR3f4Lcdfw8OUnnqO+je6dPXGivzO8qyGjsbQqSVBRcs7Mv9deJ0p79OHOmUN4VR3lqDcpKRWehvliN0hvVhF1Lh+L4jWLHpy02ZJKNAfsLUgePcFuIeKne3hLwljYYO7/TeZ5+M6p/tTOHZMlQFbQdC25ZKSVqVRpgCI+9PI7zm6TZKqMY7JZRqvsZXi64Wd+7qtyV6mlevYeWMbdvmPuwj9TGkmhLd9gamW4GLhFVz88qrzZ93KEBYfqugvHlr7xnYCsH80jVje06YOuhLns/Rujp5H0Rbtnz4iL/SPynVdENYh9Ld7ZCwvW5tz6D87Zm3/9W37X82PbPelEFm0vNLvn/z6amzn/kkIz2Xs7rpXV8cf/w194n6NRudM1iu8U6H52Es4mNVK5Sblb8gne17tjp4hjWOHzliwOLZHz0/m9XE3HWsLczXX2x5Mt16We4v8xFtR/Z9aqE8QXlzX6miSCMLIp/8gBUo9adgZUUKUYURWyNTHKyklGsxk5VS+Y/njf5fnXrR7vo73FPuz7j7xiqMgH/ltcfXzpv15hgLZfOpprwZV9wdzJ6wqwK7NTBYYvlmDRqfuHztx7sa9tG2Y93L23bMbaUNColNNcfxxRlAejv2HjZhXaopnvx8fG+uX/3h46yBl2VRquRGu7tq4gOmWavqN/f8+UmTKpGVT+nNV3mzxeKyC0FRtifrK5diukFOsvNLFk17lnVJobyaRqkd56cufN2mS/v2O9OscXy2KddlQ3yhZWX/2AXUlEo5lMyPfum5LxZ9+5qwLqLJZHE/H3choqJD4sJCdClp9nheb84o9Jxhy+QLTS4qpbCit3BdF+Wi/DuADMpx3ODff+e16f97q9d9W+qrHAYsKfF8ttDd9613+/3428Z5nevUrH7AYI3j9WY92W1F6/8htIWZLcSu3EbK5l96bsjiIycXdRRlLAEWtPT8z9V6deu6OcORyOtNSUIbSVHKxfKwpdfZezIcN/jOj7RbH3N4Ye0+/VsfKMjDlrRnw4GMZvO//4QFCswsoLu9t2FTlJiEIcRm8fvNea+zfw5HyaexYd/BPsvk7jucbLSgmQ0ad9Op5N+atqyWFHtjWcNB/Xovz3Km8qz2ajHbihS4hOXXLXbSm1KIt8XzLZo23frXvk8bP3fb019/f3WWhXLF5TTnbU+LxeZ2e7qyffec/u+OHTXdRGaeXXDY2DtWjsKKK9wGOpykN6eT3nKNj46scOqn72c9/eniVycW5FEq5DZ2a+aurGaT1W23/R69WhxLTv2l9qQJoyZWDA2+YLBe5/XmFKF8RMVc9FSS31fRbKZU0zWSkpP/aPaEMdPmPFNoN6B7qVw+JZTJ/uk8w3bC2QtL2syfM/a1+rWqH0i363m9KUFYBZdNkZFjNrEDTggC2WYjpZmzhNHn7EAyk5nv1bPL97t3ftpy8ZI33K7sW1Ibf58+bPWqDx9v26rppkxn+q1y8eZsoQH9n3KZ8stlIDY6Ppty+XYPN9+wasXsJ3bs/fCpWvWi/lW9ZtOaCB3zXPxjd82sMuG5yBJe/M5//rH0u5kRgn2/JP8z3P1j5Szuo7nlayb8b8P6eV07PvLQ+iyhZn1d2Ga8OUs4cdj2ZH/sv9k2ZtuabXO27Vs2abB9yddThhyK+bR7qzZ1/rVYqK+PMldY5cfFP3I7eZBnsz58bsHf+z9v2OeJ7l87yCbMeqA3pZLBnJl3TJrZnYKNTGYLZZhzyGDmiQ0sTrMm8ZUjIs5MmTR6wrUbPzUsqAUWCAzy5dkTSXFJ80tZ6L4nmjL92S8SUlbUXvjF+yM6tGmxQSKTGAzmG8JF0mBOpyxzrnBcFjzYKbidZrPysvKy7W0w6Ulviic72flB/Xt/EXN0UY0x4578UfRlZazcLVVvMKfQi8OenPfVj2NcDnfYtPFgk927T3aN2X+pXfz1VF12upHLNOZEsvakQH/feI3W31CtSsSl9l0bbOnavemmpk1riKaNuRd27Txea/v2o90P7j7f9fr11Oh0Q3ZoltkYwVplNL6+CYEhfqmVK4XHP9Kl/pau3Zpsbt26boK7Ypw5eU2TnWv0U8jl/57bxOmUsdrAnSfknY78fTGSTVwnkUpEDWFOh1PmdDqlzR+qeVed/th8SA67QyGVSUXzr7DvYDW4Fq1qlfg79u8/E711S0yvA3+c7XotPkWXlpIZnm0xRbDAE6DyTQoK8U+tVDEkvlWHOru6dG2yuXOXJhdEH5Lv7OlrAVlZRo1CIRc1DrFZZStU1CboqoSXuBPUmTNxAb//evTJ3duP97gSm1hDn5RRIctojLSRnXwkSp5NqxNRIfhGg+ZVDnXp0mTLgEHt9oo+5DYH95+LVqoUoqWTrBabKlDjm1Hc9qOz5+L99u441ePAvjPtzp9JaHQzQR+dlpGtMVIOl9f4LqW8WW7ZMHF/PiKKi69ZI+pCh64Nt3Tv1WJ9g/o6d93dy7y3u9cFrDuxxTrT0rK1MqnUEawN0FerUcH1XDBl7PzZ637pfLZWmleulOo1I8tFubzV2VPXNJmZuRpWGQji/Pj71ehbFOyYZA9ObFab3M9PneNp6Nf9cvjvi5EGfWYoC4JsdSO7wyFj3RtYV4filLesA1a569ZQXDVrR7Erkdvayv1Su26lnPznxFAK6jaozK7ybq/05Ul5PSZv1yKvhl3mQ2vu1n9zLl4A8EoIWADgNRCwAMBrIGABgNdAwAIAr4GABQBeAwELALwGAhYAeA0ELADwGghYAOA1ELAAwGuU+VjClOT0cDaEyWB2N2gykVJTMlyPjAaA/7QyD1gduzbaYlXk2gIVnMvZCzKt6cr2nRpsFSUAAAAAAAAAAAAAAAAAAAAAAAAAAAAAAAAAAAAAAAAAAAAAAAAAAAAAAAAAAAAAAAAAAAAAAAAAAAAAAAAAAAAAAAAAAAAAAAAAAAAAAAAAAAAAAAAAAAAAAAAAAAAAAAAAAAAAAAAAAAAAAAAAAAAAAAAAAAAAAAAAAAAAAAAAAAAAAAAAAAAAAAAAAAAAAAAAAJRfRPR/hleIX7shGCMAAAAASUVORK5CYII=;" vertex="1" parent="1">
          <mxGeometry x="260" y="277" width="87" height="87" as="geometry" />
        </mxCell>
        <mxCell id="3a8J2WZS9e_OBkugWrMs-17" value="" style="shape=flexArrow;endArrow=classic;html=1;rounded=0;" edge="1" parent="1">
          <mxGeometry width="50" height="50" relative="1" as="geometry">
            <mxPoint x="188" y="319.75" as="sourcePoint" />
            <mxPoint x="260" y="319.75" as="targetPoint" />
          </mxGeometry>
        </mxCell>
        <mxCell id="3a8J2WZS9e_OBkugWrMs-18" value="" style="shape=flexArrow;endArrow=classic;html=1;rounded=0;" edge="1" parent="1">
          <mxGeometry width="50" height="50" relative="1" as="geometry">
            <mxPoint x="354.31" y="319.75" as="sourcePoint" />
            <mxPoint x="426.31" y="319.75" as="targetPoint" />
          </mxGeometry>
        </mxCell>
        <mxCell id="3a8J2WZS9e_OBkugWrMs-19" value="" style="shape=flexArrow;endArrow=classic;html=1;rounded=0;" edge="1" parent="1">
          <mxGeometry width="50" height="50" relative="1" as="geometry">
            <mxPoint x="559" y="320" as="sourcePoint" />
            <mxPoint x="631" y="320" as="targetPoint" />
          </mxGeometry>
        </mxCell>
        <mxCell id="3a8J2WZS9e_OBkugWrMs-31" value="Extracted Data" style="text;html=1;align=center;verticalAlign=middle;whiteSpace=wrap;rounded=0;" vertex="1" parent="1">
          <mxGeometry x="118" y="357" width="60" height="30" as="geometry" />
        </mxCell>
        <mxCell id="3a8J2WZS9e_OBkugWrMs-34" value="" style="group;" vertex="1" connectable="0" parent="1">
          <mxGeometry x="141" y="68" width="569" height="143" as="geometry" />
        </mxCell>
        <mxCell id="3a8J2WZS9e_OBkugWrMs-24" value="" style="rounded=1;whiteSpace=wrap;html=1;" vertex="1" parent="3a8J2WZS9e_OBkugWrMs-34">
          <mxGeometry width="569" height="143" as="geometry" />
        </mxCell>
        <mxCell id="3a8J2WZS9e_OBkugWrMs-1" value="" style="shape=image;verticalLabelPosition=bottom;labelBackgroundColor=default;verticalAlign=top;aspect=fixed;imageAspect=0;image=data:image/png,iVBORw0KGgoAAAANSUhEUgAAAx4AAACuCAMAAACPxivkAAAABGdBTUEAALGPC/xhBQAAAAFzUkdCAK7OHOkAAAAgY0hSTQAAeiUAAICDAAD5/wAAgOkAAHUwAADqYAAAOpgAABdvkl/FRgAAAORQTFRF////suzbve3fjufPceTHYOPC0vDnM9+5m+nTgObLp+rXTOG+yO/jAN61ve3fsuzbM9+5yO/jTOG+YOPCjufPp+rXm+nT09PUycnLqqqtaGhwJiY4tbW4n5+jeHh+QUFNgObLceTHhoaL0vDnv7/CVlZgk5OXJiY4VlZgk5OXqqqtQUFNeHh+eHh+n5+jv7/C09PUqqqtQUFNJiY4hoaLqqqtycnLQUFNhoaLaGhwk5OXeHh+v7/Cv7/CVlZgVlZgk5OXtbW4n5+jaGhwaGhwtbW4tbW4hoaLAN61JiY4QUFN////DOr0rgAAAEh0Uk5TACsfVnqNBcFHZjmkEdcaJKMOi3ZIMDwFETSD0ilDcLBWZl8EHZlR2p5UNrd0ilIjBkDZzl4zEK1joWRuHB68llAqQoiBKDJ1UWnBywAAAAFiS0dEAIgFHUgAAAAJcEhZcwAACxMAAAsTAQCanBgAABTxSURBVHja7Z39e9O2FsdDoXS8tGzA5ihKbJYl6RgwCuHlMhiwl7ub7v//g26SNoltnTfJlu025/vD9jzUUo4lfSQdWTrq9VQqlUqlUqlUKpVKpVKpVCqVSqVSqbqlGwdtW6BSdVU3F4ubbdugUnVTtxZL3WrbCpWqizpcrHXYth0qVed0+2hxqaPbbduiUnVLB4uc1EFXqXK6uSjom7btUam6ozuLku60bZFK1RUdLhypg65SrXW0AHTUtlUqVQd0sIB1pA66au91d4Hqbtu2qVTt6uaCkO4wUe21Dhek1EFX7bGOFozutW2hStWSDlg6lg76/batVKna0A2HheOTB8fOP95o206Vqnk5Tvnxt9/1et996wCiDrpq7+Q45ccPL/7w0OFDHXTVnumeQ8ejzZ8eKR+qvdZ9xyk/frz762OHDz0CotofuftIjh/k//6966DrDhPVnghwyk+KT5yog67aU91y6XAfcvnQIyCqPZC7ZPUIekwddNUeinTK8wIc9LZtV6miCnDKf8Ce/UEddNVe6RsHjuMT/OmTYweQyEdAkr7pJ20XkmpP5URcgJzyvBpdwDIDa8/Pz60dDOMXxSiFNIr/w6quSuiU59Wcg26yFRsXspmJXRbpOaQ09s+qOivXKX/CJ/qxIQd9YAvt1A4iF4biocrrQLxkVRSwgBXhCEhmSw01Nh+KhyonN+IC5ZTnddLAEZCBdVqqHUctD8VDtROwj+QnadqfojvoEws0VRt1CUvxUG0V4JTnFdtBn4JtNerwoXioNnLdjh/9MnD5qDVGgwXbqo1ZJIqH6kL3A53yvKIeATEIHjFnV5HwMKD0S2d3BURceOCfy4OIO0xG57BifvyIhIdt/EVUlQRHXPBXxBgNqeKhakcuHQ9Ds3oYiw/FQ9WO7ldbsirKddDr+UBoFA9VKyoHJPF3yvNyHPR61q+G18c1VzyuksrHO46/r5afE6OhHvf8+izsKh5XScUd7E7EBX+VYzTUcwAdbKt2FrNkFA9VcW7FHe6QqchHPbOrBNxUErVkFA9Vry6nPK+ig15PnjNgS2LcNqV4qPJ4SA53yPTkuHY83C27cadWioeqV8Sjvlwj4FEeP2LToXiorhIevf40d5h2Gn2XkuKhukp4LAGZTe1Kg1k/fskoHqqrhcdaTW1uVTxUVxCPpqR4qBQPVIqHSvFApXioFA9UiodK8UCleEiVTIyZrSKszoyZdOlYcDI0ZrwO/WoCIzN3EY/L4l6+U22hdJPLCrwMlLuqRq64RHj0l8U/WK81p6kZSmogIh7DUZpmK2NWDZWzZbKxPFs9HbpQnpjVL+bfZJVhB47O90epLRs2mE18s2kajwRS/oHhIPdWyzc0wnSohrNBqaC2eZOtiMVjsvoKU8pyDFdAzmYYjxn3ctz798dOMx2jjWFYfnjVqMfebac/y+C3OV/mBgOXIOJ/zCflZGyRExB24PeWDeOR0jtvk9R5L0OkY2c6facFuwWWjWFGaDySGZzxslW6uRnaBtiwQjZMuRmwnVpw480kRdvOzKfXH2XkW8FBwjGcpmxNYindRw1pmM18diM1jQf5imNgW26Cp+McgdFU2CyXncrIaRnUTyYpkbNLrZGZUVTCGrMptyHaHlxAmLYjdq1mli1biE4saAB7NmGMJHTLOuMMs1Z+C0WH8OhDL2apYqUqMxnzFVgstNLsgvjJlBuRSuVvfAzZSIDHxSMDurPM+29s2xE2HQEccG4JNghwXTqWrjSH4+FwC4VSJ/BYV/MIfLGMbauw0pD5TCHoO/qTE74KStHjjb8tEjzWjwy5lrqL1J1IRlN+nkOMVm5uWan9TpEHM/onJ8gvlowdSA2TDpNdwGNdzWP4zVKmrcIa+Y0cu1JjTU2hg1lcszAhtgjwmPQk1mxYHcnKxGnRZfn1PKU4+lg7t7TLPJCkMh61bjORn9UJPCY49yYAj768dysXGo+HiI5SzZkQWwR4GFlTveBD3LPSTTXxLdzScJQhj9HhxJHfLIw5Yz/DrGQNqxN4GLTuNnNLHzyEvST4c6ypHnnt2rcJSS/BQ9jkV3xIlynKxVDSxL9wbZZviEa+BMUmKhynluO/SS3goxN4jNBXs2Q6EA/vYkLqqCoeua7NhCQX4CF/r4FXn29RTyBkibrUEDE8KG8Z8Vjy1RUwYxDw0Qk8/sXfwBsPn16SLO/KeOz8cxOSvE48wk0vSjqzdPLLNcQZ8gy1JIAMHrnlrqD5NM9HJ/DAlZLpADyC3Y6L8qq1RW7HfhOSuk08kCgwATOrTX67hpj4z66Q6XIuReCUgf3c4ovHY1GM0drwGJHpXDyq0VEzHtvplQlJ3Coe4EJrOB0FTwx5F+LTB+LO76o/ZBl//ZvcKrYnHk+ORddG1YbHkEzn4FFpZnVeOx6br2ImJHG7eECNNauS4Y63iWQZKi9kQ8nuk2CYR7TOg7l/zw+PVYA3SbC4uvDY9jkyPKp45Re/V3OLzK4sHsC8o1rfk3NnMEcb8wQQb2Xb8ydVRjX6I48XHhfhQQWhRmvDg05XwqPCim7592pqkZc1bkLSto1H2fsIdcvdDLHOHuvJkcFjS9P0vILo6ZUHHifHl63+mL3wvC48BnS6Ih5VOpFNkdfdIgdXFo9yu6leurvCzbgHCkImY9u5GDq1Oj39+ekv613vvzx9dopZRR61keORv5qAu+agLjzGdLoiHpU6EbeCammRNhgP2zYepcZavXR30ytkIEI+fcCbdXfNGqHj9PRpPpf+cwQQcreXGI/ixTbMJTl14WHodAU8mKnVi19fnl3o5asXrwVNgjXVXop8Zj0DmOwOKiJrLNPUkV+5SYzxe7y425byfufzN2/frXvpt2/ez7nCIFo0PNFhVnUR1k7/U84n+RkEhBw+pHiUr0WjHfQqeFycTL046JnQ6QpNiKrqDy/LFv5Glzlrqs02JzMT8liJswAUdpiWMWa6Oa7Sl2w1zz9OrIQXPg3iq1bzj5/yD376iAOybf7I6Q1wdgXfDLZbWQP/fPrsdyCrpyAflPchxMO9dJa8oDMYj2XN7ZYSkiGTLo8H4Tl+PnMtPGPrhzK1dBSO2OHtfH6uHw87LSz5cDvzSo/jg26+MNDBY/7lXdnWd18wQLbDR8J/Bt8K3qxLDx6nz+BiBPmgFq9EeABXMtPXOwfigZ/m5PHAG8UrKMNKeLinBdhNY4ydFfBw2hT99U7+eN77wQaP+VfI2jcYH9uOGvFkID+APOiAWIbQgfBBfPuQ4PEAgGOdAF3ACsLDDirERUAHj9dnYIZV8IA6uYF0q0TdeABfCyg/AXh8iD2+exRDaP4WNvcrwseWuAm3WLsVPLpte3wwo9M/0IL8WVJHOwnweIzQQTjoIXiQ5ylZPLDu7TWSYQU8YEOxxcoy8jXjAa72DM7Rx6EfwrZkGO7n539i9mJ8bIsOKS63I4fHGdqLeY4XZAIMH8TORB6PH1E6lkmQHSYBeJAbmlk80BnCGZJhOB7IOUysy46LB7wpAv1GgdiOPD5iHpi/wQ1G5lfbAjbMetRG8IYSeg3slDoI+BxIgM+uWDweEXSgC1j+eDAhADg8sEAWr7AMw/HA1smR/rDc8OvFAzHG80Q3kvu2eJHp13vK4vdwAW/dYOGnD3hDyfY9wG7xL8qu30+J7BwxePz0LUkHtsPEGw/uaDyHB9L/fUAzDMYDXSZHdgZFxQMzxvg9PmHcX7jzmX/qEfoEDx/b2RXiLJZXWcFOZ/ceYKH/QdnVg2ZX6MM0HicMHAtkh4k/HkHNY1t/WJCwMzTDcDywHPuyhl8vHsjjiXDqQhtFrw6df6FN/htMNGV+s2QiDO7uIWiYPKWDLPwF5IdO7Ek8fnDoODo4OHIAcXeY+OLBhjli8BjB2eKDRzge+Dy1BTxmfrakgY+Df6YHD2z42JUw/EqlljBmngFdD9ouyPlAy5HC44lLx+qfXT6cBSxvPJjWweGBZPsSzzAYD3wFoXk88CUX+FdQ2+Glrk3xwl046XmsBHofu5U8bqch/h65oLMgHs9JPSPe1BGBh+uUH1784ZB10H3xGPQYMXggcysiw1A8LD5yw/5wVDz8nsdtp4vXgH/9ytXZG+ZN4fIqIA+vCewaM2yZv9CCxPFwnfI7mz/dcfgo7TDxxYON3x+EBzG3CsfD18Yu4RFYvOBfublVr/dfMNPdCiWyHpafvYKjWm4TiDmvRyI8Sioz8M0u1U3XQUfTSqqZjVjHhEuHC/pXIsNrgcfU7/l68eCqrJfMqUx7mMeftxIsrClnt7/QBrgQ6yCf7ECeTlAPrOvB1N8EfmnC9QjGY+BrY0w8Ur/nQ/EAmzGPR4/DA17bzS0jgRtK8rOv2o7BVMXjqJTu9pE0paAequJh4Hc+IzIMxSP1tfEa4AGa/JGtM9g3z494cFkwh9Iz1u4AYYsWwlZ+6Ka8F8KVd5csqj8DvzOVoeIhzz4Uj4+cEcg5QLKsCp82a8MDK/87ojZ+C0p6KEp6p5Am9D5LxcPPmKuBB+wzbvcXgZMvy9sdIKz8RU7ETTjtTUnagsuieCge+Sfg7y2b6RPk8xQ/G0bHQzK7uoGlves7t1I89gmPL1C6wmobsmfkYuW2zw4eDeBxg23g9/ECOGDhKg4ezeJxRmSoeMizD/tozq9c9bC13YtPH2M+eXw8uCnSPboIGD7K0zLF4wriEfjdQ4KHIXaNgINHX2B3gIjyJ/k47DE69KGjWTz+ITJUPOTZw3i86zGC9ySWdv/hnz7AiVfpQyiyFdVfVPnfOJK3b1f42teR67TEwaMPv/NvRIaKhzx7uBGiB2k3+ip5U/jT4GqlH3Lby3swzXk9okMl9m4gY8BdrghWQkafQ8ijj4MHsqnkM5HhS7iYqph6bfEYgn9ljnsgnrkTNQedXUF/KB/rg733xF9sA+zddsUn8k0aB4+AHbu/ggkUDyh7uPfhZlfv5iIbYEtH4IZFt5PnF7eulCLhgZzzJmZXH8AEigeYPWwzs7QLfvVwj3XDhywzcEOJ+wLcpqwrpkh4YCsYeIbw84qHR/HOySkJvF9XGqnHQktawJlS0DLu6Gl3FQkPcw7rf1h+cIhdxQPOHjmZ8TdlMTx4+EShk9g/Ej53RRQJDzSwE7anXVABjeJBhzFqGw8sztVbNMPeWybOVU7iO9mA14V9c640O6tIePgGSfyMPN4AHgPfbIOMqRkPJOwiPr1CplZgIAvppV7gmSU40A/bnjqqWHhgYeDgELsf0BqoYqoMj7ATLy3jgU2A0J0lcBA4xGsW4gGejQQDXbEXzl6oe4NMLDz6eBE7R2r/eY0+2wAeyBkH+gbItvHARuf5e3B19xN2CQ4cjhAJoFe2HkQLCTLKnyDq9adc7MHmFQsPagL7ugDIq8/4k03gYc598w0xpm480AD4UBTqP9H7PeAVCNm1hV7xUlk+klXcbTqucwuKhgd9tfXnF6/WevH6nFQDeGCh+8vDxyjl824OD3wCNH9fClnyCb8/DYtli0eUzxmPLO4h8z6bUcvOyWVQevJewRYUDY9qd9JDDSgSHlhDK9bUMLMFT7R1PIjLt+bvv26nWO++EpcLojubJoLhAzUeq3g88mZ/e2ND16ZX8fAw4uVzYR00jIfNNR6zvq1wXMGY2vGgu5/5fP73x48fl/+jnsIdZv7aW7yxoxVv7Qzw6IpXQXZsehUPj1qGjybwwO9wsKlZaja4vD2zijH14yH/eoe+H778wPdtxNIewZbNxma73zBJzCgt30zarelVRDwkI7RPJcTCQzzM5TvM9vFA75ASly1xhR+/tkuUe59JbKlbqrs1vYqIR+X6O28GD+kyf8GaDuBRdXgm++kZ18QpR5u7i5fOuUvTq5h41DC9agQPfqK9sWYWbEwMPLhemnkZ+kwFkzf9nW9axbIuTa+i4iFbPyfrsIqpUjxC9uB1AQ/x7g/wt5lOmj41zu1Rr9IxSj4hNqWoeFR3PxrBQ16Zu+GjE3iwUyDJmyCihyauh69U8ZbbLt2c4uJRmY9m8JCvQdtQY+LgEcwHSwc95eQbcDU+JC23EUXGoyofzeAR4H10BI9APgR0kDUnaL9VKr4706vYePT6WV39SEQ85E5SFmhMLDyC+JCdv8CnnBK6lnyEVrzNOrN4FR2PXm8gKqZ/4ZKqYqocD49vHybMmGh4+H8etMKz37jjL5z8BHaMXfry0QAePcOXkx3DobGawkPeCWdhxsTDo5f4LaMKz170iLVdafsN+fDVoaHDsx7C083ogdZO+70E/ksVU33wEPNx2fV2CA+/CZbHwVbs2Ad/td5GQ+8BhPyU37yawWM5UuMFZaerFts2HrKPCHaahBkTFQ/5AGIH4qaNe2Ti4afHdowl62zqYV4TagqPpas2hkrK2vFFd9w6HoJFBJuZUGPi4rEsXQkgduoXcQo5Z+yXiRgQK/L4m1VzeCyVmHS624lmbZaOtptG28djNYBQNZmDo3t4CADxhQNbnPXe9DETTLGsHXTJ59holELi56eh6XqrfcxJMnHiqPJ4eP8knIBsI2hXZ+10yOc98rSl3uJNiHZos1nAvGUMWRHQjOGZQ65wQzLdKxkWj2Y0TN2aXLLRvSAaoPqjKWj+rF8974qWbY/NOMPGqHXjui8YDx8vsDb1zXhweRxh+d9pOrpaMWITM0sHmyMVg3RmOuPuJkOTrqfXG9vGZtIZ47otOJ5Om1+IhIH0Var4yjqHh0rVGYVFglap9kHIh19d0FCpsLmVfPuCSnV9hRze7865GJUqltjVO+zsTGeOxahU0cRtNcPouLrXpqhUUq1jb6f4p1H0QI/OrVTXXpcxL7CNGQl+aKaVb+YqVZPaxjlYbV0qjyET4kSZzq1U117FY9yrXewzY/qrXbsG2aWmcyvV3ig4YF4HT8eoVPUqPByxDh6q667wMLvqeaiuvcTxBx11KVC3ShVD4VcY6XYr1bVXuF+uW9lV113BAfZ11Up17RXslysdquuvVOlQqRCF3n3XqcsXVapI6odcwbgNY6tSXXMJ7i4owaFfA1V7JOMzgnQxCrFKFVNMgFWFQ7XnggLXOmx0MkS3StWE+qPU4uHPs/HVimOrUtWvvhmlaWYv4zuvAjzbaTozGqFbpcor0QDPKpVKpVKpVCqVSqVSqVQqlUrlqf8Deyre8GSt0AwAAAAldEVYdGRhdGU6Y3JlYXRlADIwMTYtMTItMTNUMTk6NDc6MTcrMDA6MDD2p/o8AAAAJXRFWHRkYXRlOm1vZGlmeQAyMDE2LTEyLTEzVDE5OjQ3OjE3KzAwOjAwh/pCgAAAAABJRU5ErkJggg==;" vertex="1" parent="3a8J2WZS9e_OBkugWrMs-34">
          <mxGeometry x="29" y="56" width="142.17" height="31" as="geometry" />
        </mxCell>
        <mxCell id="3a8J2WZS9e_OBkugWrMs-4" value="" style="shape=image;verticalLabelPosition=bottom;labelBackgroundColor=default;verticalAlign=top;aspect=fixed;imageAspect=0;image=data:image/svg+xml,PHN2ZyB4bWxucz0iaHR0cDovL3d3dy53My5vcmcvMjAwMC9zdmciIGhlaWdodD0iNjEwIiB3aWR0aD0iMjUwMCIgdmlld0JveD0iMCAtMi43NzU1NTc1NjE1NjI4OTE0ZS0xNyAxMzkuNDIwMDk0MzQwMjEwMDggMzQiPjxnIGZpbGw9IiMwMWE3MWMiPjxwYXRoIGQ9Ik00Ni4yIDI2LjM3YTE4Ljg1IDE4Ljg1IDAgMCAxLTIuNTctLjIgMjUgMjUgMCAwIDEtMi43NC0uNTN2LTEuMzlhMjUuMzEgMjUuMzEgMCAwIDAgMi43MS41MyAxOCAxOCAwIDAgMCAyLjUuMiA1LjUxIDUuNTEgMCAwIDAgMy4yOS0uODQgMi43OSAyLjc5IDAgMCAwIDEuMTQtMi4zOSAyLjg1IDIuODUgMCAwIDAtMS4yNC0yLjQ5IDYgNiAwIDAgMC0xLjI5LS43MXEtLjc4LS4yOS0xLjY3LS41NWExNS45MyAxNS45MyAwIDAgMS0yLjMzLS44NyA1LjkyIDUuOTIgMCAwIDEtMS41OC0xLjA1IDMuNiAzLjYgMCAwIDEtLjktMS4zNCA1IDUgMCAwIDEtLjI5LTEuNzQgNC40NiA0LjQ2IDAgMCAxIC40MS0xLjkzIDQuMzEgNC4zMSAwIDAgMSAxLjE3LTEuNSA1LjI2IDUuMjYgMCAwIDEgMS44Mi0xQTggOCAwIDAgMSA0NyA4LjI4YTIwLjUxIDIwLjUxIDAgMCAxIDQuNDEuNTd2MS40MmEyMCAyMCAwIDAgMC0yLjIzLS40NCAxNS4yIDE1LjIgMCAwIDAtMi0uMTUgNC44NiA0Ljg2IDAgMCAwLTMuMDguOUEyLjkgMi45IDAgMCAwIDQyLjg4IDEzYTMuMjUgMy4yNSAwIDAgMCAuMjEgMS4yMSAyLjYxIDIuNjEgMCAwIDAgLjcgMSA0LjgzIDQuODMgMCAwIDAgMS4yNy43OSAxNC4zMSAxNC4zMSAwIDAgMCAyIC42OHExLjExLjMzIDIuMDYuNzFhNi4yMSA2LjIxIDAgMCAxIDEuNjUuOTQgNC4wOSA0LjA5IDAgMCAxIDEuMSAxLjM4IDQuNTQgNC41NCAwIDAgMSAuNCAyIDQuMTUgNC4xNSAwIDAgMS0xLjU2IDMuNDggNy4xNiA3LjE2IDAgMCAxLTQuNTEgMS4xOHpNNjAuNjIgMjYuMzJhNS40NiA1LjQ2IDAgMCAxLTQuMjgtMS42MiA2LjkgNi45IDAgMCAxLTEuNDYtNC43IDcuOCA3LjggMCAwIDEgMS40My01IDUgNSAwIDAgMSA0LjE0LTEuNzUgNC4yNCA0LjI0IDAgMCAxIDMuNDcgMS40MyA2LjQ4IDYuNDggMCAwIDEgMS4xOCA0LjEydi45MmEzLjIyIDMuMjIgMCAwIDEtLjA5LjY0aC04LjU3YTUuMzkgNS4zOSAwIDAgMCAxLjE3IDMuNUE0LjE4IDQuMTggMCAwIDAgNjAuOCAyNWExMC41MiAxMC41MiAwIDAgMCAxLjgyLS4xNyAxMS43NyAxMS43NyAwIDAgMCAxLjkzLS41MmwuMTIgMS4yN2ExMC42OCAxMC42OCAwIDAgMS0yIC41NSAxMS40NyAxMS40NyAwIDAgMS0yLjA1LjE5em0tLjIyLTExLjg5cS0zLjY4IDAtMy45NCA0Ljc0aDcuMTVhNi40OSA2LjQ5IDAgMCAwLS43OC0zLjYzIDIuNzYgMi43NiAwIDAgMC0yLjQzLTEuMTF6TTY4LjY0IDdoMS41OHYxOS4xMWgtMS41OHpNNzkuNTYgMjYuMzJhNS40NiA1LjQ2IDAgMCAxLTQuMjgtMS42MiA2LjkgNi45IDAgMCAxLTEuNDUtNC43IDcuOCA3LjggMCAwIDEgMS40My01IDUgNSAwIDAgMSA0LjE0LTEuNzUgNC4yNCA0LjI0IDAgMCAxIDMuNDcgMS40M0E2LjQ4IDYuNDggMCAwIDEgODQgMTguOHYuOTJhMy4yMiAzLjIyIDAgMCAxLS4wOS42NGgtOC41M2E1LjQgNS40IDAgMCAwIDEuMTcgMy41IDQuMTggNC4xOCAwIDAgMCAzLjIgMS4xNCAxMC41MiAxMC41MiAwIDAgMCAxLjgyLS4xNyAxMS44IDExLjggMCAwIDAgMS45My0uNTJsLjEyIDEuMjdhMTAuNjggMTAuNjggMCAwIDEtMiAuNTUgMTEuNDcgMTEuNDcgMCAwIDEtMi4wNi4xOXptLS4yMS0xMS44OXEtMy42OCAwLTMuOTQgNC43NGg3LjE1YTYuNDkgNi40OSAwIDAgMC0uNzgtMy42MyAyLjc2IDIuNzYgMCAwIDAtMi40My0xLjExek04Ny41MSAxMy4zN2gxLjMybC4xMiAxLjQ5aC4xMnEuOTQtLjQ1IDEuNzItLjc4dDEuNDMtLjU0YTguNDIgOC40MiAwIDAgMSAxLjItLjMxIDYuNTQgNi41NCAwIDAgMSAxLjEtLjA5QTMuMyAzLjMgMCAwIDEgOTcgMTRhMy42MyAzLjYzIDAgMCAxIC44MyAyLjYzdjkuNTFoLTEuNTl2LTlhMyAzIDAgMCAwLS41NS0yIDIuMTggMi4xOCAwIDAgMC0xLjY5LS42IDcuMjUgNy4yNSAwIDAgMC0yLjI0LjQxIDIwLjEgMjAuMSAwIDAgMC0yLjY3IDEuMTJ2MTBoLTEuNTh6TTEwMi43NSAxMC41MmEuOTMuOTMgMCAwIDEtMS4wNi0xIDEuMDYgMS4wNiAwIDAgMSAyLjEyIDAgLjkzLjkzIDAgMCAxLTEuMDYgMXptLS44IDIuODVoMS41OHYxMi43NGgtMS41OHpNMTEwLjgxIDI2LjM0cS0zLjE0IDAtMy4xNC0zLjQ3di05LjVoMS41OHY5YTMuMTYgMy4xNiAwIDAgMCAuNDggMiAxLjkyIDEuOTIgMCAwIDAgMS41OS42IDYuODMgNi44MyAwIDAgMCAyLjQ4LS40OHExLjI1LS40OCAyLjU5LTEuMTR2LTkuOThIMTE4djEyLjc0aC0xLjMybC0uMTItMS41OGgtLjA5bC0xLjczLjgxcS0uNzQuMzQtMS4zOC41N2E3LjkgNy45IDAgMCAxLTEuMjMuMzMgNy4zNCA3LjM0IDAgMCAxLTEuMzIuMXpNMTIyLjE4IDEzLjM3aDEuM2wuMTQgMS40OWguMDlhMTkuNTMgMTkuNTMgMCAwIDEgMi41OC0xLjMxIDUuNTEgNS41MSAwIDAgMSAyLS40MSAyLjgzIDIuODMgMCAwIDEgMyAxLjc3aC4xMnEuOC0uNSAxLjQ1LS44M2ExMi42MSAxMi42MSAwIDAgMSAxLjItLjU0IDYuMTcgNi4xNyAwIDAgMSAxLS4zMSA1LjE4IDUuMTggMCAwIDEgMS0uMDkgMy4zIDMuMyAwIDAgMSAyLjQ1Ljg0IDMuNjMgMy42MyAwIDAgMSAuODMgMi42M3Y5LjUxaC0xLjU2di05YTIuOSAyLjkgMCAwIDAtLjU1LTIgMi4yMSAyLjIxIDAgMCAwLTEuNjktLjU5IDUuMTQgNS4xNCAwIDAgMC0xLjc4LjM4QTE0LjQ1IDE0LjQ1IDAgMCAwIDEzMS42IDE2djEwLjFIMTMwdi05YTIuOSAyLjkgMCAwIDAtLjU1LTIgMi4yMSAyLjIxIDAgMCAwLTEuNjktLjU5IDUuMjQgNS4yNCAwIDAgMC0xLjg2LjQgMTQgMTQgMCAwIDAtMi4xNCAxLjA5djEwLjExaC0xLjU4ek0yMS40NSAyMS41MWEyLjQ5IDIuNDkgMCAwIDAtMi41NSAyLjIxLjA4LjA4IDAgMCAwIC4wOC4xaDQuOTVhLjA4LjA4IDAgMCAwIC4wOC0uMDkgMi40MSAyLjQxIDAgMCAwLTIuNTYtMi4yMnoiLz48cGF0aCBkPSJNMzIuMDYgNC45MUwyMS41NiAxNi43YS4zMi4zMiAwIDAgMS0uNDcgMGwtNS4zNi01LjUzYS4zMi4zMiAwIDAgMSAwLS40TDE3LjUgOC41YS4zMi4zMiAwIDAgMSAuNTIgMGwzIDMuMzJhLjMyLjMyIDAgMCAwIC40OSAwTDI5Ljg3LjM2YS4yMy4yMyAwIDAgMC0uMTgtLjM2SC4yNUEuMjUuMjUgMCAwIDAgMCAuMjV2MzMuNWEuMjUuMjUgMCAwIDAgLjI1LjI1aDMyYS4yNS4yNSAwIDAgMCAuMjUtLjI1VjUuMDZhLjIzLjIzIDAgMCAwLS40NC0uMTV6bS0yMyAyNS4zNmE4LjA4IDguMDggMCAwIDEtNS43NC0yIC4zMS4zMSAwIDAgMSAwLS40MWwxLjI1LTEuNzVBLjMxLjMxIDAgMCAxIDUgMjZhNi4xNSA2LjE1IDAgMCAwIDQuMiAxLjY0YzEuNjQgMCAyLjQ0LS43NiAyLjQ0LTEuNTYgMC0yLjQ4LTguMDgtLjc4LTguMDgtNi4wNiAwLTIuMzMgMi00LjI3IDUuMzItNC4yN2E3Ljg4IDcuODggMCAwIDEgNS4yNSAxLjc2LjMxLjMxIDAgMCAxIDAgLjQzbC0xLjIzIDEuNzFhLjMxLjMxIDAgMCAxLS40NS4wNSA2LjA4IDYuMDggMCAwIDAtMy44NC0xLjMyYy0xLjI4IDAtMiAuNTctMiAxLjQxIDAgMi4yMyA4LjA2Ljc0IDguMDYgNiAwIDIuNTQtMS44MyA0LjQ4LTUuNjIgNC40OHptMTcuNjItNC44N2EuMjcuMjcgMCAwIDEtLjI4LjI4SDE5YS4wOS4wOSAwIDAgMC0uMDguMSAyLjgxIDIuODEgMCAwIDAgMyAyLjMyIDQuNjIgNC42MiAwIDAgMCAyLjU2LS44NC4yNy4yNyAwIDAgMSAuNC4wNmwuOSAxLjMxYS4yOC4yOCAwIDAgMS0uMDYuMzcgNi42NyA2LjY3IDAgMCAxLTQuMSAxLjI4IDUuMjggNS4yOCAwIDAgMS01LjU3LTUuNDggNS4zMSA1LjMxIDAgMCAxIDUuNC01LjQ2YzMuMTEgMCA1LjIyIDIuMzMgNS4yMiA1Ljc0eiIvPjwvZz48L3N2Zz4=;clipPath=inset(0% 76% 0% 0%);" vertex="1" parent="3a8J2WZS9e_OBkugWrMs-34">
          <mxGeometry x="284" y="44" width="54.24657534246575" height="55" as="geometry" />
        </mxCell>
        <mxCell id="3a8J2WZS9e_OBkugWrMs-10" value="" style="shape=image;html=1;verticalAlign=top;verticalLabelPosition=bottom;labelBackgroundColor=#ffffff;imageAspect=0;aspect=fixed;image=https://cdn3.iconfinder.com/data/icons/document-icons-2/30/647702-excel-128.png" vertex="1" parent="3a8J2WZS9e_OBkugWrMs-34">
          <mxGeometry x="448" y="37" width="69" height="69" as="geometry" />
        </mxCell>
        <mxCell id="3a8J2WZS9e_OBkugWrMs-13" value="" style="shape=flexArrow;endArrow=classic;html=1;rounded=0;" edge="1" parent="3a8J2WZS9e_OBkugWrMs-34">
          <mxGeometry width="50" height="50" relative="1" as="geometry">
            <mxPoint x="193" y="71" as="sourcePoint" />
            <mxPoint x="265" y="71" as="targetPoint" />
          </mxGeometry>
        </mxCell>
        <mxCell id="3a8J2WZS9e_OBkugWrMs-14" value="" style="shape=flexArrow;endArrow=classic;html=1;rounded=0;" edge="1" parent="3a8J2WZS9e_OBkugWrMs-34">
          <mxGeometry width="50" height="50" relative="1" as="geometry">
            <mxPoint x="355" y="71" as="sourcePoint" />
            <mxPoint x="427" y="71" as="targetPoint" />
          </mxGeometry>
        </mxCell>
        <mxCell id="3a8J2WZS9e_OBkugWrMs-32" value="Extracted Data" style="text;html=1;align=center;verticalAlign=middle;whiteSpace=wrap;rounded=0;" vertex="1" parent="3a8J2WZS9e_OBkugWrMs-34">
          <mxGeometry x="452.5" y="110" width="60" height="30" as="geometry" />
        </mxCell>
        <mxCell id="3a8J2WZS9e_OBkugWrMs-33" value="Web Crawler" style="text;html=1;align=center;verticalAlign=middle;whiteSpace=wrap;rounded=0;" vertex="1" parent="3a8J2WZS9e_OBkugWrMs-34">
          <mxGeometry x="281.12" y="106" width="60" height="30" as="geometry" />
        </mxCell>
        <mxCell id="3a8J2WZS9e_OBkugWrMs-35" value="Maps API" style="text;html=1;align=center;verticalAlign=middle;whiteSpace=wrap;rounded=0;" vertex="1" parent="1">
          <mxGeometry x="123" y="478" width="60" height="30" as="geometry" />
        </mxCell>
        <mxCell id="3a8J2WZS9e_OBkugWrMs-36" value="Power BI" style="text;html=1;align=center;verticalAlign=middle;whiteSpace=wrap;rounded=0;" vertex="1" parent="1">
          <mxGeometry x="671.5" y="366.5" width="60" height="30" as="geometry" />
        </mxCell>
      </root>
    </mxGraphModel>
  </diagram>
</mxfile>
